<mxfile host="app.diagrams.net" modified="2023-08-26T06:18:35.392Z" agent="Mozilla/5.0 (Windows NT 10.0; Win64; x64) AppleWebKit/537.36 (KHTML, like Gecko) Chrome/116.0.0.0 Safari/537.36 Edg/116.0.1938.54" etag="7N0zKjkAK8i4XvqkTpQu" version="21.6.8" type="github">
  <diagram name="第 1 页" id="5EBlP609btRo98-567cf">
    <mxGraphModel dx="1379" dy="796" grid="1" gridSize="10" guides="1" tooltips="1" connect="1" arrows="1" fold="1" page="1" pageScale="1" pageWidth="827" pageHeight="1169" math="0" shadow="0">
      <root>
        <mxCell id="0" />
        <mxCell id="1" parent="0" />
        <mxCell id="rZcGbvBRXeMTnHbOlhqk-28" style="edgeStyle=orthogonalEdgeStyle;rounded=0;orthogonalLoop=1;jettySize=auto;html=1;entryX=0.5;entryY=0;entryDx=0;entryDy=0;" edge="1" parent="1" source="rZcGbvBRXeMTnHbOlhqk-1" target="rZcGbvBRXeMTnHbOlhqk-4">
          <mxGeometry relative="1" as="geometry" />
        </mxCell>
        <mxCell id="rZcGbvBRXeMTnHbOlhqk-1" value="«interface»&lt;br&gt;TimeIntervalParameterService" style="html=1;whiteSpace=wrap;" vertex="1" parent="1">
          <mxGeometry x="170" y="330" width="110" height="50" as="geometry" />
        </mxCell>
        <mxCell id="rZcGbvBRXeMTnHbOlhqk-27" style="edgeStyle=orthogonalEdgeStyle;rounded=0;orthogonalLoop=1;jettySize=auto;html=1;" edge="1" parent="1" source="rZcGbvBRXeMTnHbOlhqk-2" target="rZcGbvBRXeMTnHbOlhqk-1">
          <mxGeometry relative="1" as="geometry" />
        </mxCell>
        <mxCell id="rZcGbvBRXeMTnHbOlhqk-2" value="«interface»&lt;br&gt;TimeIntervalParameterController" style="html=1;whiteSpace=wrap;" vertex="1" parent="1">
          <mxGeometry x="170" y="140" width="110" height="50" as="geometry" />
        </mxCell>
        <mxCell id="rZcGbvBRXeMTnHbOlhqk-4" value="«interface»&lt;br&gt;TimeIntervalParameterMapper" style="html=1;whiteSpace=wrap;" vertex="1" parent="1">
          <mxGeometry x="170" y="580" width="110" height="50" as="geometry" />
        </mxCell>
        <mxCell id="rZcGbvBRXeMTnHbOlhqk-5" value="TimeIntervalParameter" style="swimlane;fontStyle=0;childLayout=stackLayout;horizontal=1;startSize=26;fillColor=none;horizontalStack=0;resizeParent=1;resizeParentMax=0;resizeLast=0;collapsible=1;marginBottom=0;whiteSpace=wrap;html=1;" vertex="1" parent="1">
          <mxGeometry x="50" y="440" width="140" height="52" as="geometry" />
        </mxCell>
        <mxCell id="rZcGbvBRXeMTnHbOlhqk-6" value="&amp;nbsp;" style="text;strokeColor=none;fillColor=none;align=left;verticalAlign=top;spacingLeft=4;spacingRight=4;overflow=hidden;rotatable=0;points=[[0,0.5],[1,0.5]];portConstraint=eastwest;whiteSpace=wrap;html=1;" vertex="1" parent="rZcGbvBRXeMTnHbOlhqk-5">
          <mxGeometry y="26" width="140" height="26" as="geometry" />
        </mxCell>
        <mxCell id="rZcGbvBRXeMTnHbOlhqk-11" style="edgeStyle=orthogonalEdgeStyle;rounded=0;orthogonalLoop=1;jettySize=auto;html=1;entryX=0.5;entryY=0;entryDx=0;entryDy=0;" edge="1" source="rZcGbvBRXeMTnHbOlhqk-12" target="rZcGbvBRXeMTnHbOlhqk-14" parent="1">
          <mxGeometry relative="1" as="geometry" />
        </mxCell>
        <mxCell id="rZcGbvBRXeMTnHbOlhqk-12" value="«interface»&lt;br&gt;TimeIntervalDetailsController" style="html=1;whiteSpace=wrap;" vertex="1" parent="1">
          <mxGeometry x="419" y="140" width="110" height="50" as="geometry" />
        </mxCell>
        <mxCell id="rZcGbvBRXeMTnHbOlhqk-13" style="edgeStyle=orthogonalEdgeStyle;rounded=0;orthogonalLoop=1;jettySize=auto;html=1;entryX=0.5;entryY=0;entryDx=0;entryDy=0;" edge="1" source="rZcGbvBRXeMTnHbOlhqk-14" target="rZcGbvBRXeMTnHbOlhqk-15" parent="1">
          <mxGeometry relative="1" as="geometry" />
        </mxCell>
        <mxCell id="rZcGbvBRXeMTnHbOlhqk-14" value="«interface»&lt;br&gt;TimeIntervalDetailsService" style="html=1;whiteSpace=wrap;" vertex="1" parent="1">
          <mxGeometry x="419" y="330" width="110" height="50" as="geometry" />
        </mxCell>
        <mxCell id="rZcGbvBRXeMTnHbOlhqk-15" value="«interface»&lt;br&gt;TimeIntervalDetailsMapper" style="html=1;whiteSpace=wrap;" vertex="1" parent="1">
          <mxGeometry x="419" y="580" width="110" height="50" as="geometry" />
        </mxCell>
        <mxCell id="rZcGbvBRXeMTnHbOlhqk-16" value="TimeIntervalDetails" style="swimlane;fontStyle=0;childLayout=stackLayout;horizontal=1;startSize=26;fillColor=none;horizontalStack=0;resizeParent=1;resizeParentMax=0;resizeLast=0;collapsible=1;marginBottom=0;whiteSpace=wrap;html=1;" vertex="1" parent="1">
          <mxGeometry x="299" y="440" width="140" height="52" as="geometry" />
        </mxCell>
        <mxCell id="rZcGbvBRXeMTnHbOlhqk-17" value="&amp;nbsp;" style="text;strokeColor=none;fillColor=none;align=left;verticalAlign=top;spacingLeft=4;spacingRight=4;overflow=hidden;rotatable=0;points=[[0,0.5],[1,0.5]];portConstraint=eastwest;whiteSpace=wrap;html=1;" vertex="1" parent="rZcGbvBRXeMTnHbOlhqk-16">
          <mxGeometry y="26" width="140" height="26" as="geometry" />
        </mxCell>
        <mxCell id="rZcGbvBRXeMTnHbOlhqk-18" style="edgeStyle=orthogonalEdgeStyle;rounded=0;orthogonalLoop=1;jettySize=auto;html=1;entryX=0.5;entryY=0;entryDx=0;entryDy=0;" edge="1" source="rZcGbvBRXeMTnHbOlhqk-19" target="rZcGbvBRXeMTnHbOlhqk-21" parent="1">
          <mxGeometry relative="1" as="geometry" />
        </mxCell>
        <mxCell id="rZcGbvBRXeMTnHbOlhqk-19" value="TimeIntervalResultController" style="html=1;whiteSpace=wrap;" vertex="1" parent="1">
          <mxGeometry x="680" y="140" width="110" height="50" as="geometry" />
        </mxCell>
        <mxCell id="rZcGbvBRXeMTnHbOlhqk-20" style="edgeStyle=orthogonalEdgeStyle;rounded=0;orthogonalLoop=1;jettySize=auto;html=1;entryX=0.5;entryY=0;entryDx=0;entryDy=0;" edge="1" source="rZcGbvBRXeMTnHbOlhqk-21" target="rZcGbvBRXeMTnHbOlhqk-22" parent="1">
          <mxGeometry relative="1" as="geometry" />
        </mxCell>
        <mxCell id="rZcGbvBRXeMTnHbOlhqk-21" value="«interface»&lt;br&gt;TimeIntervalResultService" style="html=1;whiteSpace=wrap;" vertex="1" parent="1">
          <mxGeometry x="680" y="330" width="110" height="50" as="geometry" />
        </mxCell>
        <mxCell id="rZcGbvBRXeMTnHbOlhqk-22" value="«interface»&lt;br&gt;TimeIntervalResultMapper" style="html=1;whiteSpace=wrap;" vertex="1" parent="1">
          <mxGeometry x="680" y="580" width="110" height="50" as="geometry" />
        </mxCell>
        <mxCell id="rZcGbvBRXeMTnHbOlhqk-23" value="TimeIntervalResult" style="swimlane;fontStyle=0;childLayout=stackLayout;horizontal=1;startSize=26;fillColor=none;horizontalStack=0;resizeParent=1;resizeParentMax=0;resizeLast=0;collapsible=1;marginBottom=0;whiteSpace=wrap;html=1;" vertex="1" parent="1">
          <mxGeometry x="560" y="440" width="140" height="52" as="geometry" />
        </mxCell>
        <mxCell id="rZcGbvBRXeMTnHbOlhqk-24" value="&amp;nbsp;" style="text;strokeColor=none;fillColor=none;align=left;verticalAlign=top;spacingLeft=4;spacingRight=4;overflow=hidden;rotatable=0;points=[[0,0.5],[1,0.5]];portConstraint=eastwest;whiteSpace=wrap;html=1;" vertex="1" parent="rZcGbvBRXeMTnHbOlhqk-23">
          <mxGeometry y="26" width="140" height="26" as="geometry" />
        </mxCell>
      </root>
    </mxGraphModel>
  </diagram>
</mxfile>
